<?xml version="1.0" standalone="no"?>
<!DOCTYPE svg PUBLIC "-//W3C//DTD SVG 20010904//EN"
 "http://www.w3.org/TR/2001/REC-SVG-20010904/DTD/svg10.dtd">
<svg version="1.0" xmlns="http://www.w3.org/2000/svg"
 width="180.000000pt" height="180.000000pt" viewBox="0 0 180.000000 180.000000"
 preserveAspectRatio="xMidYMid meet">

<g transform="translate(0.000000,180.000000) scale(0.100000,-0.100000)"
fill="#000000" stroke="none">
<path d="M0 900 l0 -900 900 0 900 0 0 900 0 900 -900 0 -900 0 0 -900z m290
130 c30 -30 25 -60 -17 -102 -30 -31 -44 -38 -75 -38 -36 0 -38 -2 -38 -30 0
-28 -2 -30 -40 -30 l-40 0 0 110 0 110 95 0 c82 0 98 -3 115 -20z m210 -90 l0
-110 -40 0 c-29 0 -40 4 -40 15 0 11 -11 15 -37 15 l-37 0 39 40 c21 22 36 42
34 45 -3 2 -32 -22 -64 -55 -57 -57 -62 -60 -110 -60 l-50 0 110 110 c105 106
111 110 152 110 l43 0 0 -110z m100 68 l0 -42 43 42 c39 38 48 42 92 42 l49 0
-54 -55 -54 -55 29 -30 29 -30 86 85 c80 80 88 85 128 85 41 0 42 -1 42 -32
l0 -32 33 32 c26 26 41 32 75 32 l42 0 0 -62 0 -62 63 62 c54 54 68 62 100 62
l37 0 0 -110 0 -110 -40 0 c-29 0 -40 4 -40 15 0 10 -10 15 -30 15 -38 0 -38
12 1 45 17 14 30 28 27 30 -2 3 -29 -20 -58 -50 -49 -50 -59 -55 -97 -55 l-43
0 0 55 c0 30 -3 55 -7 55 -5 0 -37 -25 -73 -55 l-65 -54 -5 55 -5 55 -55 -56
c-53 -53 -56 -55 -109 -55 -51 0 -58 3 -98 42 l-43 42 0 -42 0 -42 -40 0 -40
0 0 110 0 110 40 0 40 0 0 -42z m840 -68 l0 -110 -40 0 -40 0 0 110 0 110 40
0 40 0 0 -110z m100 30 l0 -80 43 0 c49 0 79 -13 52 -23 -11 -5 -14 -3 -9 6 4
6 -6 0 -23 -15 -25 -24 -38 -28 -86 -28 l-57 0 0 110 0 110 40 0 40 0 0 -80z
m163 -111 c5 -9 7 -28 3 -42 -11 -44 -83 -49 -93 -6 -3 8 0 7 7 -3 13 -21 50
-24 68 -6 20 20 14 58 -10 68 -18 8 -19 9 -4 7 10 -1 23 -9 29 -18z m-92 -22
c-10 -9 -11 -8 -5 6 3 10 9 15 12 12 3 -3 0 -11 -7 -18z m79 0 c0 -7 -13 -14
-30 -15 -19 -1 -30 2 -30 11 0 7 13 14 30 15 19 1 30 -2 30 -11z"/>
<path d="M160 938 l0 -32 30 29 c17 16 30 30 30 32 0 2 -13 3 -30 3 -27 0 -30
-3 -30 -32z"/>
</g>
</svg>
